[img]http://img689.imageshack.us/img689/6973/idont.jpg[/img]
[code]
iNFO

Title: I Don't Know How She Does It 2011 R5RiP XviD - VISUALiSE
Format: XViD
Language: English
Subtitles: No    

iMDB: http://www.imdb.com/title/tt1742650/

Plot:
A comedy centered on the life of Kate Reddy, 
a finance executive who is the breadwinner 
for her husband and two kids.  

Sources:
Video:  Relizlab DVDR          - big thanks   
Audio:  Relizlab DVDR          - big thanks   

Release Notes:
Ok here we are with another release this time bringing you.....
I Don't Know How She Does It 2011 R5RiP XviD - VISUALiSE
Big thanks goes to relizlab for the DVD9 love you guys long time lol   
inwhich contained studio english  so we have a very nice R5Rip of 
this release to share. 

Info:
ID                               : 0
Format                           : MPEG-4 Visual
Format profile                   : Advanced Simple@L5
Format settings, BVOP            : 2
Format settings, QPel            : No
Format settings, GMC             : No warppoints
Format settings, Matrix          : Default (MPEG)
Codec ID                         : XVID
Codec ID/Hint                    : XviD
Duration                         : 1h 25mn
Bit rate                         : 1 439 Kbps
Width                            : 720 pixels
Height                           : 400 pixels
Display aspect ratio             : 16:9
Frame rate                       : 29.970 fps
Color space                      : YUV
Chroma subsampling               : 4:2:0
Bit depth                        : 8 bits
Scan type                        : Progressive
Compression mode                 : Lossy
Bits/(Pixel*Frame)               : 0.167
Stream size                      : 883 MiB (92%)
Writing library                  : XviD 1.2.1 (UTC 2008-12-04)

ID                               : 1
Format                           : MPEG Audio
Format version                   : Version 1
Format profile                   : Layer 3
Codec ID                         : 55
Codec ID/Hint                    : MP3
Duration                         : 1h 25mn
Bit rate mode                    : Constant
Bit rate                         : 112 Kbps
Channel(s)                       : 2 channels
Sampling rate                    : 48.0 KHz
Compression mode                 : Lossy
Delay relative to video          : 33ms
Stream size                      : 68.7 MiB (7%)
Alignment                        : Aligned on interleaves
Interleave, duration             : 24 ms (0.72 video frame)
Interleave, preload duration     : 504 ms
Writing library                  : LAME3.98.4
[/code]
Screens:
[img]http://img80.imageshack.us/img80/4231/60313852.png[/img]
[img]http://img171.imageshack.us/img171/5655/92114967.png[/img]
[img]http://img638.imageshack.us/img638/43/95585654.png[/img]
[img]http://img257.imageshack.us/img257/7536/53323686.png[/img]